<svg width="470" height="366" viewBox="0 0 470 366" fill="none" xmlns="http://www.w3.org/2000/svg">
<path d="M137.72 305.906L137.67 297.516L136.93 173.019L136.902 168.36L136.495 99.8388C130.379 95.9917 123.995 92.5901 117.39 89.6603C91.5161 78.2076 60.7507 73.485 35.2759 85.7943C21.6758 92.6208 11.154 104.326 5.81356 118.57C5.66317 118.947 5.52445 119.311 5.39747 119.676C1.14888 131.789 1.18015 144.944 7.39984 156.302C18.5341 176.714 43.4341 184.253 65.5497 191.457C87.6535 198.66 112.167 210.391 117.679 232.972C113.037 227.269 106.959 222.904 100.071 220.326C93.1824 217.748 85.7313 217.05 78.4834 218.303C71.2356 219.557 64.4523 222.717 58.8308 227.458C53.2094 232.2 48.9524 238.352 46.4974 245.283C46.0932 246.412 45.7243 247.552 45.4024 248.704C44.6326 251.472 44.1692 254.317 44.0204 257.186C42.9413 279.079 59.7299 298.695 79.6499 307.882C97.6626 316.178 117.878 317.76 137.795 318.557L137.72 305.906Z" fill="#F0F0F0"/>
<path d="M137.67 297.516L137.72 305.906C133.26 294.478 126.529 284.072 117.932 275.317C109.336 266.561 99.054 259.639 87.7064 254.966C74.2953 249.578 59.8003 247.432 45.4023 248.705C45.7246 247.553 46.0933 246.412 46.4976 245.283C52.0913 244.886 57.7089 244.97 63.2882 245.535C83.1994 247.562 101.93 255.939 116.71 269.428C125.375 277.414 132.482 286.938 137.67 297.516Z" fill="white"/>
<path d="M136.902 168.36L136.93 173.019C132.261 168.522 127.226 164.423 121.876 160.762C105.253 149.325 86.4755 140.682 67.4168 134.212C47.8835 127.547 27.6075 123.296 7.04098 121.556C6.57798 121.513 6.14906 121.295 5.84312 120.945C5.53718 120.595 5.37768 120.14 5.39767 119.676C5.3849 119.267 5.53441 118.87 5.81361 118.571C5.95976 118.431 6.13678 118.328 6.33028 118.27C6.52378 118.212 6.72831 118.2 6.92722 118.235C9.46465 118.443 11.9902 118.675 14.5275 118.965C35.5803 121.34 56.256 126.322 76.0788 133.796C95.2124 140.982 114.135 150.258 130.306 162.86C132.583 164.595 134.789 166.424 136.902 168.36Z" fill="white"/>
<path d="M26.8979 64.8116C30.7883 64.8116 33.9422 61.6591 33.9422 57.7704C33.9422 53.8817 30.7883 50.7292 26.8979 50.7292C23.0074 50.7292 19.8535 53.8817 19.8535 57.7704C19.8535 61.6591 23.0074 64.8116 26.8979 64.8116Z" fill="#F0F0F0"/>
<path d="M315.685 86.9753H313.673V31.8849C313.673 27.6977 312.848 23.5515 311.245 19.6831C309.642 15.8146 307.292 12.2997 304.33 9.33887C301.368 6.37808 297.851 4.02946 293.981 2.4271C290.111 0.824732 285.963 3.62051e-06 281.774 0H165.004C156.544 -8.77432e-06 148.43 3.35927 142.448 9.33882C136.466 15.3184 133.105 23.4284 133.105 31.8848V334.115C133.105 342.571 136.466 350.681 142.448 356.661C148.43 362.641 156.544 366 165.004 366H281.773C290.234 366 298.347 362.641 304.33 356.661C310.312 350.682 313.673 342.572 313.673 334.115V126.19H315.685V86.9753Z" fill="#73A9FF"/>
<path d="M306.884 32.1076V333.896C306.884 334.337 306.873 334.773 306.845 335.208C306.511 341.288 303.859 347.008 299.434 351.192C295.01 355.377 289.15 357.708 283.058 357.705H165.729C159.623 357.707 153.75 355.364 149.323 351.161C144.897 346.958 142.254 341.215 141.943 335.12C141.92 334.718 141.909 334.31 141.909 333.896V32.1076C141.909 25.7924 144.418 19.7355 148.885 15.2694C153.352 10.8033 159.411 8.29382 165.729 8.29297H179.967C179.266 10.0106 178.998 11.8742 179.188 13.7196C179.377 15.565 180.017 17.3357 181.052 18.8756C182.087 20.4155 183.485 21.6774 185.122 22.5502C186.76 23.4231 188.587 23.88 190.443 23.8808H257.341C259.197 23.8799 261.024 23.4228 262.661 22.5499C264.299 21.6771 265.697 20.4151 266.731 18.8753C267.766 17.3354 268.406 15.5649 268.596 13.7195C268.785 11.8741 268.517 10.0106 267.816 8.29297H283.058C289.377 8.2936 295.437 10.8028 299.905 15.2688C304.373 19.7348 306.883 25.7918 306.884 32.1076Z" fill="white"/>
<path d="M304.717 259.706H144.072C143.508 259.706 142.967 259.481 142.568 259.082C142.169 258.684 141.944 258.143 141.944 257.579V60.5808C141.944 60.0167 142.169 59.4759 142.568 59.0771C142.967 58.6783 143.508 58.454 144.072 58.4534H304.717C305.281 58.454 305.822 58.6783 306.221 59.0771C306.621 59.4759 306.845 60.0167 306.846 60.5808V257.579C306.845 258.143 306.621 258.684 306.221 259.082C305.822 259.481 305.281 259.706 304.717 259.706Z" fill="#F0F0F0"/>
<path d="M292.927 72.1995H156.191C155.627 72.1998 155.085 72.4242 154.686 72.8232C154.287 73.2223 154.062 73.7635 154.062 74.3278V216.67C154.063 217.233 154.288 217.773 154.688 218.171C155.087 218.569 155.628 218.793 156.191 218.793H292.927C293.491 218.793 294.032 218.569 294.431 218.171C294.83 217.773 295.055 217.234 295.057 216.67V74.3278C295.056 73.7634 294.832 73.2223 294.432 72.8232C294.033 72.4241 293.492 72.1998 292.927 72.1995Z" fill="white"/>
<path d="M153.819 51.2796C156.866 51.2796 159.336 48.8109 159.336 45.7656C159.336 42.7204 156.866 40.2517 153.819 40.2517C150.773 40.2517 148.303 42.7204 148.303 45.7656C148.303 48.8109 150.773 51.2796 153.819 51.2796Z" fill="#73A9FF"/>
<path d="M180.059 225.812C170.639 210.647 173.885 191.274 175.47 173.495C177.839 146.82 175.702 119.937 169.148 93.9712C176.954 102.683 182.104 113.445 183.992 124.987C185.547 134.611 184.778 144.512 186.54 154.101C190.317 174.662 205.528 193.204 203.174 213.976C202.654 218.567 200.903 223.505 196.825 225.681C192.222 228.136 186.603 226.183 181.774 224.206" fill="#F0F0F0"/>
<path d="M164.161 232.106C163.129 231.07 161.728 230.486 160.266 230.482C158.803 230.478 157.399 231.055 156.363 232.087C155.326 233.118 154.741 234.518 154.738 235.98C154.734 237.442 155.312 238.845 156.343 239.881L156.362 239.9L164.161 247.694L171.96 239.9C172.99 238.866 173.567 237.465 173.565 236.006C173.562 234.546 172.982 233.148 171.949 232.116C170.917 231.084 169.517 230.503 168.057 230.502C166.597 230.5 165.196 231.077 164.161 232.106V232.106Z" fill="#73A9FF"/>
<path d="M188.433 232.106C187.402 231.07 186.001 230.486 184.538 230.482C183.076 230.478 181.672 231.055 180.635 232.087C179.598 233.118 179.014 234.518 179.01 235.98C179.007 237.442 179.584 238.845 180.616 239.881L180.635 239.9L188.433 247.694L196.232 239.9C197.262 238.866 197.839 237.465 197.837 236.006C197.835 234.546 197.254 233.148 196.222 232.116C195.189 231.084 193.789 230.503 192.33 230.502C190.87 230.5 189.468 231.077 188.433 232.106V232.106Z" fill="#73A9FF"/>
<path d="M212.706 232.106C211.674 231.07 210.273 230.486 208.811 230.482C207.348 230.478 205.944 231.055 204.908 232.087C203.871 233.118 203.286 234.518 203.283 235.98C203.279 237.442 203.857 238.845 204.888 239.881L204.907 239.9L212.706 247.694L220.505 239.9C221.534 238.866 222.111 237.465 222.109 236.006C222.107 234.546 221.526 233.148 220.494 232.116C219.462 231.084 218.062 230.503 216.602 230.502C215.142 230.5 213.741 231.077 212.706 232.106V232.106Z" fill="#73A9FF"/>
<path d="M255.58 50.0899H177.79C177.23 50.0905 176.676 49.9809 176.159 49.7674C175.642 49.5539 175.173 49.2406 174.777 48.8454C174.381 48.4502 174.067 47.981 173.853 47.4645C173.639 46.9479 173.528 46.3943 173.528 45.8351C173.528 45.2759 173.639 44.7223 173.853 44.2058C174.067 43.6892 174.381 43.22 174.777 42.8248C175.173 42.4296 175.642 42.1163 176.159 41.9028C176.676 41.6893 177.23 41.5797 177.79 41.5803H255.58C256.139 41.5797 256.693 41.6893 257.21 41.9028C257.727 42.1163 258.197 42.4296 258.593 42.8248C258.989 43.22 259.303 43.6892 259.517 44.2058C259.731 44.7223 259.841 45.2759 259.841 45.8351C259.841 46.3943 259.731 46.9479 259.517 47.4645C259.303 47.981 258.989 48.4502 258.593 48.8454C258.197 49.2406 257.727 49.5539 257.21 49.7674C256.693 49.9809 256.139 50.0905 255.58 50.0899Z" fill="#73A9FF"/>
<path d="M304.716 296.655H144.072C143.507 296.655 142.966 296.88 142.567 297.279C142.167 297.678 141.943 298.219 141.943 298.783V335.12C142.254 341.215 144.897 346.958 149.324 351.161C153.75 355.364 159.624 357.707 165.729 357.705H283.059C289.15 357.708 295.01 355.377 299.435 351.192C303.859 347.008 306.511 341.288 306.845 335.208V298.783C306.845 298.219 306.62 297.678 306.221 297.279C305.822 296.88 305.281 296.655 304.716 296.655Z" fill="#F0F0F0"/>
<path d="M292.927 310.401H156.191C155.627 310.402 155.085 310.626 154.686 311.025C154.287 311.424 154.062 311.965 154.062 312.53V354.656C157.623 356.661 161.642 357.712 165.729 357.705H283.058C287.274 357.711 291.416 356.594 295.057 354.469V312.53C295.056 311.965 294.832 311.424 294.432 311.025C294.033 310.626 293.492 310.402 292.927 310.401Z" fill="white"/>
<path d="M153.819 289.481C156.866 289.481 159.336 287.013 159.336 283.967C159.336 280.922 156.866 278.453 153.819 278.453C150.773 278.453 148.303 280.922 148.303 283.967C148.303 287.013 150.773 289.481 153.819 289.481Z" fill="#E4E4E4"/>
<path d="M255.58 288.292H177.79C177.23 288.292 176.676 288.183 176.159 287.969C175.642 287.756 175.173 287.442 174.777 287.047C174.381 286.652 174.067 286.183 173.853 285.666C173.639 285.15 173.528 284.596 173.528 284.037C173.528 283.478 173.639 282.924 173.853 282.408C174.067 281.891 174.381 281.422 174.777 281.027C175.173 280.631 175.642 280.318 176.159 280.105C176.676 279.891 177.23 279.781 177.79 279.782H255.58C256.139 279.781 256.693 279.891 257.21 280.105C257.727 280.318 258.197 280.631 258.593 281.027C258.989 281.422 259.303 281.891 259.517 282.408C259.731 282.924 259.841 283.478 259.841 284.037C259.841 284.596 259.731 285.15 259.517 285.666C259.303 286.183 258.989 286.652 258.593 287.047C258.197 287.442 257.727 287.756 257.21 287.969C256.693 288.183 256.139 288.292 255.58 288.292Z" fill="#E4E4E4"/>
<path d="M211.61 357.705H171.191C175.306 349.611 182.902 343.016 191.855 342.669C193.205 342.619 194.555 342.718 195.882 342.966C196.439 343.066 196.986 343.198 197.532 343.341C200.966 344.224 204.093 346.029 206.574 348.561C209.056 351.093 210.797 354.255 211.61 357.705Z" fill="#F2F2F2"/>
<path d="M276.257 357.705H221.374C222.217 355.188 222.933 352.63 223.52 350.041C225.985 339.393 228.495 327.439 237.592 321.385C242.656 318.01 248.818 317.459 254.66 318.948C254.836 318.992 255.018 319.041 255.195 319.097C262.085 321.007 268 325.448 271.755 331.531C276.406 339.327 277.443 348.602 276.257 357.705Z" fill="#F2F2F2"/>
<path d="M198.1 351.204C198.074 353.383 197.88 355.556 197.521 357.705H195.943C196.772 352.826 196.752 347.839 195.882 342.967C196.439 343.066 196.986 343.198 197.532 343.341C197.95 345.941 198.14 348.572 198.1 351.204Z" fill="white"/>
<path d="M255.399 319.604C255.405 320.795 255.399 321.992 255.366 323.188C255.122 333.135 253.64 343.013 250.953 352.594C250.479 354.303 249.966 356.007 249.414 357.705H247.792C248.785 354.684 249.651 351.624 250.401 348.558C252.722 339.148 253.878 329.489 253.843 319.797C253.844 319.578 253.93 319.367 254.082 319.209C254.234 319.051 254.441 318.958 254.66 318.948C254.851 318.927 255.043 318.98 255.195 319.097C255.266 319.16 255.322 319.238 255.357 319.326C255.393 319.414 255.407 319.509 255.399 319.604Z" fill="white"/>
<path d="M284.533 329.769C286.361 329.769 287.843 328.288 287.843 326.461C287.843 324.634 286.361 323.152 284.533 323.152C282.705 323.152 281.224 324.634 281.224 326.461C281.224 328.288 282.705 329.769 284.533 329.769Z" fill="#F2F2F2"/>
<path d="M205.197 88.332C207.025 88.332 208.506 86.8508 208.506 85.0237C208.506 83.1965 207.025 81.7153 205.197 81.7153C203.369 81.7153 201.887 83.1965 201.887 85.0237C201.887 86.8508 203.369 88.332 205.197 88.332Z" fill="#73A9FF"/>
<path d="M266.429 107.631C268.256 107.631 269.738 106.149 269.738 104.322C269.738 102.495 268.256 101.014 266.429 101.014C264.601 101.014 263.119 102.495 263.119 104.322C263.119 106.149 264.601 107.631 266.429 107.631Z" fill="#E4E4E4"/>
<path d="M264.774 174.901C266.602 174.901 268.084 173.419 268.084 171.592C268.084 169.765 266.602 168.284 264.774 168.284C262.946 168.284 261.464 169.765 261.464 171.592C261.464 173.419 262.946 174.901 264.774 174.901Z" fill="#E4E4E4"/>
<path d="M250.125 206.431L247.886 199.262C247.501 197.594 247.012 195.952 246.424 194.344C243.897 186.713 238.348 171.323 231.811 155.245L224.121 147.558L221.991 146.169L219.978 144.862L219.112 145.661L210.854 153.282L210.793 153.783L205.398 199.615C205.398 199.615 205.381 199.742 205.354 199.99C205.293 200.525 205.166 201.617 205.001 203.177C204.686 206.111 204.179 211.233 203.677 217.69H253.639L250.125 206.431Z" fill="#73A9FF"/>
<path opacity="0.2" d="M214.719 173.833L212.623 186.91L226.812 192.76L214.719 173.833Z" fill="black"/>
<path d="M240.124 115.324C237.545 112.509 234.176 110.539 230.458 109.671C226.739 108.804 222.846 109.08 219.287 110.463C215.728 111.846 212.671 114.272 210.515 117.422C208.36 120.572 207.207 124.3 207.208 128.116V142.248C207.208 142.924 207.476 143.572 207.954 144.049C208.432 144.527 209.08 144.796 209.756 144.796H242.562C243.237 144.794 243.884 144.525 244.361 144.048C244.838 143.57 245.105 142.923 245.105 142.248V128.116C245.107 123.379 243.33 118.813 240.124 115.324Z" fill="#73A9FF"/>
<path d="M229.78 143.942C237.452 143.942 243.672 137.725 243.672 130.056C243.672 122.387 237.452 116.171 229.78 116.171C222.107 116.171 215.888 122.387 215.888 130.056C215.888 137.725 222.107 143.942 229.78 143.942Z" fill="#8FBAFF"/>
<path d="M240.124 115.324C238.368 114.622 236.494 114.263 234.602 114.265H231.772C229.389 114.265 227.041 114.834 224.922 115.925C222.804 117.015 220.976 118.596 219.592 120.534C219.498 120.656 219.416 120.783 219.333 120.904C217.667 123.367 216.78 126.273 216.784 129.247V129.528H222.759L224.799 123.821L225.208 129.528H228.297L229.323 126.649L229.527 129.528C235.987 131.914 242.69 131.761 249.59 129.528V129.247C249.587 126.246 248.683 123.315 246.996 120.833C245.308 118.35 242.915 116.432 240.124 115.324Z" fill="#73A9FF"/>
<path d="M231.661 143.814C231.649 143.782 231.634 143.751 231.618 143.721C229.747 140.159 227.403 134.705 227.27 129.528C227.193 126.434 227.91 123.435 229.996 121.003L230.393 120.535H214.224V144.801L219.112 145.662L221.991 146.169L228.914 147.393C229.064 147.419 229.215 147.432 229.367 147.432C229.767 147.431 230.162 147.336 230.519 147.154C230.875 146.972 231.184 146.708 231.419 146.384C231.759 145.926 231.93 145.365 231.904 144.796C231.894 144.455 231.811 144.121 231.661 143.814Z" fill="#73A9FF"/>
<path opacity="0.2" d="M205.735 198.978C209.433 203.257 214.448 206.187 219.992 207.307C225.537 208.427 231.297 207.674 236.366 205.166L239.39 203.671L205.735 198.978Z" fill="black"/>
<path d="M362.404 240.789C362.449 239.836 362.703 238.904 363.147 238.059C363.592 237.215 364.216 236.478 364.976 235.9C365.736 235.323 366.614 234.919 367.547 234.717C368.48 234.516 369.447 234.521 370.377 234.733L379.014 222.567L387.69 226.01L375.253 243.019C374.793 244.559 373.784 245.876 372.417 246.722C371.051 247.568 369.421 247.883 367.837 247.608C366.254 247.333 364.826 246.487 363.824 245.23C362.823 243.974 362.318 242.393 362.404 240.789H362.404Z" fill="#73A9FF"/>
<path d="M371.878 230.326L387.233 204.512L380.977 187.837L389.498 165.125L389.812 165.26C390.018 165.348 394.86 167.508 395.577 175.241L405.369 206.001L379.236 239.887L371.878 230.326Z" fill="#73A9FF"/>
<path d="M288.482 135.426C289.429 135.545 290.339 135.87 291.147 136.378C291.955 136.886 292.642 137.566 293.159 138.368C293.676 139.17 294.011 140.076 294.14 141.021C294.269 141.967 294.189 142.929 293.906 143.841L305.373 153.388L301.268 161.768L285.264 148.058C283.764 147.481 282.528 146.374 281.79 144.947C281.052 143.519 280.863 141.871 281.26 140.314C281.656 138.757 282.611 137.399 283.942 136.498C285.273 135.598 286.888 135.216 288.482 135.426L288.482 135.426Z" fill="#73A9FF"/>
<path d="M298.185 145.677L322.746 162.975L339.863 158.03L361.858 168.277L361.699 168.58C361.596 168.778 359.067 173.436 351.298 173.553L319.86 180.933L288.08 152.27L298.185 145.677Z" fill="#73A9FF"/>
<path d="M343.128 356.033L334.589 356.032L330.526 323.113L343.129 323.113L343.128 356.033Z" fill="#73A9FF"/>
<path d="M325.91 353.594H344.957V363.957H318.121V361.379C318.121 359.314 318.942 357.334 320.402 355.874C321.863 354.414 323.844 353.594 325.91 353.594Z" fill="#73A9FF"/>
<path d="M377.254 356.033L368.716 356.032L364.654 323.113L377.256 323.113L377.254 356.033Z" fill="#73A9FF"/>
<path d="M360.037 353.594H379.084V363.957H352.249V361.379C352.249 359.314 353.069 357.334 354.53 355.874C355.99 354.414 357.972 353.594 360.037 353.594Z" fill="#73A9FF"/>
<path d="M380.291 235.872L379.595 284.603L378.898 348.65L363.576 347.257L355.915 258.845L346.165 347.257H330.346L328.752 258.149L334.324 238.657L380.291 235.872Z" fill="#73A9FF"/>
<path d="M332.797 238.954L330.462 238.853L341.305 179.151L336.865 161.106C336.635 160.167 336.757 159.176 337.208 158.321C337.659 157.466 338.409 156.806 339.314 156.466L347.302 153.473L350.124 145.716L372.388 148.114L372.936 154.176C375.348 154.95 395.216 161.563 393.845 169.099C392.492 176.537 384.503 199.939 384.098 201.125L382.699 234.685L382.527 234.771C382.319 234.875 366.973 242.417 350.301 242.416C344.431 242.416 338.392 241.48 332.797 238.954Z" fill="#73A9FF"/>
<path d="M374.449 133.539C378.696 125.774 375.841 116.039 368.072 111.794C360.304 107.549 350.564 110.403 346.317 118.168C342.071 125.933 344.926 135.669 352.694 139.913C360.462 144.158 370.203 141.304 374.449 133.539Z" fill="#73A9FF"/>
<path d="M373.368 141.365C370.313 144.617 364.639 142.871 364.241 138.428C364.21 138.083 364.212 137.735 364.248 137.391C364.454 135.422 365.591 133.635 365.319 131.557C365.257 131.04 365.064 130.547 364.759 130.125C362.324 126.866 356.609 131.582 354.312 128.632C352.903 126.824 354.559 123.976 353.478 121.954C352.051 119.286 347.825 120.602 345.174 119.141C342.225 117.515 342.402 112.993 344.343 110.242C346.71 106.887 350.861 105.097 354.96 104.839C359.059 104.581 363.129 105.689 366.956 107.18C371.304 108.873 375.616 111.214 378.291 115.035C381.545 119.683 381.858 125.931 380.231 131.365C379.241 134.67 375.863 138.708 373.368 141.365Z" fill="#73A9FF"/>
<path d="M469.448 365.022H0.551643C0.405338 365.022 0.265025 364.964 0.161572 364.861C0.058119 364.757 0 364.617 0 364.471C0 364.325 0.058119 364.184 0.161572 364.081C0.265025 363.978 0.405338 363.919 0.551643 363.919H469.448C469.595 363.919 469.735 363.978 469.838 364.081C469.942 364.184 470 364.325 470 364.471C470 364.617 469.942 364.757 469.838 364.861C469.735 364.964 469.595 365.022 469.448 365.022Z" fill="#73A9FF"/>
<path d="M257.069 205.141H248.478C248.203 205.142 247.937 205.04 247.733 204.854C247.528 204.669 247.401 204.415 247.375 204.14L245.655 186.522H259.893L258.173 204.14C258.147 204.414 258.019 204.669 257.815 204.854C257.611 205.04 257.345 205.142 257.069 205.141Z" fill="#73A9FF"/>
<path d="M259.87 188.739H245.678C245.384 188.739 245.102 188.622 244.894 188.414C244.687 188.206 244.57 187.925 244.569 187.631V184.971C244.57 184.677 244.687 184.396 244.894 184.188C245.102 183.98 245.384 183.863 245.678 183.863H259.87C260.164 183.863 260.446 183.98 260.653 184.188C260.861 184.396 260.978 184.677 260.979 184.971V187.631C260.978 187.925 260.861 188.206 260.653 188.414C260.446 188.622 260.164 188.739 259.87 188.739Z" fill="#73A9FF"/>
<path d="M254.076 195.781C253.457 195.085 252.692 194.534 251.836 194.165C250.98 193.797 250.053 193.62 249.122 193.649C248.19 193.677 247.276 193.909 246.444 194.328C245.612 194.747 244.882 195.344 244.305 196.076L230.279 192.14L225.807 200.077L245.693 205.357C246.987 206.244 248.562 206.625 250.119 206.428C251.676 206.232 253.106 205.472 254.14 204.291C255.173 203.111 255.737 201.593 255.726 200.024C255.714 198.456 255.127 196.946 254.076 195.781Z" fill="#8FBAFF"/>
<path d="M231.27 191.477L224.612 187.237L222.714 186.343L214.136 182.302C214.39 181.43 215.118 178.828 215.808 175.531C217.418 167.817 218.792 156.298 213.248 154.28C212.462 153.983 211.633 153.815 210.793 153.784C209.67 153.743 208.555 153.997 207.561 154.522C203.407 156.689 201.757 162.788 201.697 163.014L196.561 177.102C196.086 177.753 191.204 184.513 191.993 189.519C192.092 190.239 192.34 190.929 192.72 191.548C193.099 192.167 193.603 192.7 194.2 193.114C197.755 195.661 201.482 197.959 205.354 199.99C206.253 200.453 207.132 200.882 207.991 201.275C212.801 203.47 217.043 204.589 220.607 204.589C221.772 204.598 222.934 204.463 224.066 204.186L237.907 203.872L237.995 203.475L238.028 203.321L239.865 194.829L240.383 192.425L231.27 191.477Z" fill="#73A9FF"/>
</svg>
