<svg width="533" height="394" viewBox="0 0 533 394" fill="none" xmlns="http://www.w3.org/2000/svg">
<g clip-path="url(#clip0_1:33)">
<path d="M75.2541 199.791L74.1807 198.98C80.0436 191.174 87.3406 181.461 88.4646 170.502C89.5727 159.7 84.4083 148.094 74.9867 140.213C66.9686 133.506 55.9304 129.267 43.0655 127.954C40.5279 127.695 37.919 127.544 35.3958 127.397C29.2971 127.042 22.9907 126.675 17.0589 124.77C8.88894 122.147 0.489531 115.305 0.142097 105.934C0.0627194 102.928 0.825226 99.961 2.34305 97.3683C3.86087 94.7756 6.07318 92.6616 8.7288 91.2664L9.35652 92.4585C6.92347 93.7363 4.89629 95.6724 3.50504 98.0471C2.11379 100.422 1.41416 103.14 1.48557 105.893C1.80849 114.601 9.74588 121.006 17.4689 123.487C23.2384 125.34 29.4584 125.701 35.4735 126.051C38.0109 126.199 40.635 126.351 43.2017 126.613C56.3343 127.953 67.6231 132.298 75.8476 139.178C85.6079 147.342 90.9549 159.398 89.8017 170.641C88.6392 181.972 81.2177 191.852 75.2541 199.791Z" fill="#F1F1F1"/>
<path d="M19.4237 94.1688C25.3295 91.4567 29.0522 86.9262 27.7386 84.0495C26.425 81.1729 20.5725 81.0396 14.6667 83.7517C8.76097 86.4638 5.03827 90.9943 6.35187 93.8709C7.66547 96.7476 13.5179 96.8809 19.4237 94.1688Z" fill="#F1F1F1"/>
<path d="M43.6483 124.556C49.5541 121.844 53.2768 117.313 51.9632 114.436C50.6496 111.56 44.7971 111.427 38.8913 114.139C32.9856 116.851 29.2629 121.381 30.5765 124.258C31.8901 127.135 37.7425 127.268 43.6483 124.556Z" fill="#F1F1F1"/>
<path d="M26.6134 139.05C32.5192 136.338 36.2419 131.807 34.9283 128.931C33.6147 126.054 27.7622 125.921 21.8564 128.633C15.9507 131.345 12.228 135.876 13.5416 138.752C14.8552 141.629 20.7076 141.762 26.6134 139.05Z" fill="#F1F1F1"/>
<path d="M70.3173 153.82C76.223 151.108 79.9457 146.578 78.6321 143.701C77.3185 140.824 71.4661 140.691 65.5603 143.403C59.6545 146.115 55.9318 150.646 57.2454 153.522C58.559 156.399 64.4115 156.532 70.3173 153.82Z" fill="#F1F1F1"/>
<path d="M91.704 143.999C97.6097 141.287 101.332 136.756 100.019 133.879C98.7052 131.003 92.8528 130.869 86.947 133.581C81.0412 136.294 77.3185 140.824 78.6321 143.701C79.9457 146.577 85.7982 146.711 91.704 143.999Z" fill="#F1F1F1"/>
<path d="M496.074 394L496.66 392.787C487.89 388.527 476.975 383.226 470.986 373.992C465.082 364.889 464.392 352.198 469.186 340.873C473.266 331.234 481.156 322.409 492.004 315.35C494.144 313.958 496.396 312.629 498.574 311.343C503.839 308.235 509.282 305.021 513.692 300.61C519.766 294.535 524.124 284.602 520.167 276.106C518.869 273.396 516.839 271.105 514.308 269.493C511.778 267.881 508.847 267.013 505.849 266.988L505.833 268.336C508.58 268.359 511.265 269.153 513.584 270.629C515.903 272.105 517.763 274.203 518.953 276.685C522.63 284.58 518.485 293.913 512.743 299.656C508.454 303.946 503.085 307.116 497.892 310.181C495.702 311.474 493.437 312.811 491.273 314.22C480.199 321.425 472.134 330.459 467.949 340.346C462.982 352.079 463.714 365.253 469.859 374.727C476.053 384.276 487.154 389.668 496.074 394Z" fill="#F1F1F1"/>
<path d="M497.655 274.467C504.144 274.176 509.29 271.378 509.149 268.217C509.008 265.056 503.633 262.73 497.144 263.021C490.655 263.313 485.509 266.111 485.65 269.272C485.791 272.432 491.166 274.759 497.655 274.467Z" fill="#F1F1F1"/>
<path d="M489.938 312.594C496.427 312.303 501.573 309.504 501.432 306.343C501.291 303.183 495.916 300.857 489.427 301.148C482.938 301.439 477.792 304.237 477.933 307.398C478.074 310.559 483.449 312.885 489.938 312.594Z" fill="#F1F1F1"/>
<path d="M511.693 317.689C518.182 317.398 523.328 314.6 523.187 311.439C523.046 308.278 517.672 305.952 511.182 306.243C504.693 306.534 499.547 309.333 499.688 312.494C499.829 315.654 505.204 317.98 511.693 317.689Z" fill="#F1F1F1"/>
<path d="M479.535 350.841C486.025 350.549 491.171 347.751 491.03 344.59C490.889 341.43 485.514 339.103 479.025 339.395C472.536 339.686 467.389 342.484 467.531 345.645C467.672 348.806 473.046 351.132 479.535 350.841Z" fill="#F1F1F1"/>
<path d="M456.036 351.895C462.525 351.604 467.671 348.806 467.53 345.645C467.389 342.484 462.014 340.158 455.525 340.449C449.036 340.74 443.89 343.539 444.031 346.7C444.172 349.86 449.547 352.186 456.036 351.895Z" fill="#F1F1F1"/>
<path d="M309.242 178.686C309.501 178.953 309.739 179.241 309.953 179.546L343.274 178.728L347.161 171.605L358.647 176.083L352.988 189.364C352.531 190.437 351.739 191.332 350.731 191.915C349.723 192.498 348.554 192.738 347.399 192.598L309.753 188.037C308.865 189.165 307.656 189.994 306.287 190.416C304.917 190.837 303.452 190.83 302.086 190.396C300.721 189.962 299.519 189.121 298.641 187.986C297.764 186.85 297.252 185.474 297.173 184.039C297.095 182.605 297.454 181.18 298.202 179.955C298.951 178.73 300.053 177.763 301.364 177.182C302.674 176.601 304.129 176.433 305.537 176.702C306.944 176.971 308.237 177.663 309.242 178.686Z" fill="#A884ED"/>
<path d="M417.861 381.615L406.905 381.614L401.693 339.236L417.863 339.237L417.861 381.615Z" fill="#A884ED"/>
<path d="M420.655 392.265L385.329 392.264V391.815C385.329 388.159 386.778 384.651 389.356 382.066C391.935 379.48 395.432 378.027 399.079 378.027H399.08L420.656 378.028L420.655 392.265Z" fill="#814EE4"/>
<path d="M318.377 381.37L308.302 377.053L320.11 336.03L334.979 342.4L318.377 381.37Z" fill="#A884ED"/>
<path d="M316.775 392.265L284.289 378.347L284.465 377.935C285.897 374.572 288.603 371.918 291.988 370.556C295.372 369.193 299.157 369.235 302.511 370.671L302.511 370.672L322.353 379.172L316.775 392.265Z" fill="#814EE4"/>
<path d="M364.608 187.867L363.815 200.741L386.974 203.226L411.205 205.826L404.073 186.277L364.608 187.867Z" fill="#A884ED"/>
<path d="M363.409 192.638L354.09 138.012L369.683 132.887L374.263 126.588L396.551 127.911L399.823 135.261L411.707 140.892L409.88 174.907L406.675 190.727L406.28 190.522C390.214 182.179 364.057 192.382 363.794 192.486L363.409 192.638Z" fill="#976CE9"/>
<path d="M357.424 184.052L341.563 177.688L341.631 177.405C341.699 177.12 348.449 148.83 349.346 144.284C350.279 139.548 353.691 138.238 353.836 138.185L353.942 138.146L360.219 140.062L362.975 161.783L357.424 184.052Z" fill="#976CE9"/>
<path d="M326.537 373.922L305.424 369.579L339.169 276.201L350.719 244.351C350.719 244.351 358.044 218.813 361.353 208.931L363.351 195.671L410.63 200.919C410.63 200.919 423.835 220.366 419.824 252.065L421.638 371.208L400.525 372.294L382.84 252.132L351.801 318.004C351.801 318.004 342.018 346.113 335.019 352.206L326.537 373.922Z" fill="#814EE4"/>
<path d="M391.67 205.341C392.042 205.332 392.414 205.353 392.782 205.402L414.839 180.344L412.273 172.642L423.358 167.24L429.221 180.431C429.695 181.497 429.811 182.688 429.552 183.826C429.293 184.963 428.674 185.986 427.786 186.74L398.856 211.323C399.076 212.742 398.861 214.196 398.237 215.489C397.614 216.783 396.613 217.856 395.367 218.565C394.122 219.274 392.69 219.586 391.263 219.46C389.836 219.333 388.481 218.774 387.379 217.856C386.276 216.938 385.479 215.706 385.092 214.322C384.705 212.939 384.748 211.47 385.213 210.112C385.679 208.753 386.547 207.569 387.7 206.717C388.853 205.865 390.238 205.385 391.67 205.341H391.67Z" fill="#A884ED"/>
<path d="M413.078 182.783L403.877 161.079L407.466 145.961L411.333 141.062C411.616 140.94 411.921 140.879 412.229 140.882C412.537 140.885 412.841 140.952 413.122 141.079C414.548 141.654 415.762 143.418 416.731 146.322L425.354 170.953L413.078 182.783Z" fill="#976CE9"/>
<path d="M365.342 118.546V102.183C365.342 96.368 367.645 90.791 371.746 86.6791C375.846 82.5672 381.407 80.2571 387.206 80.2571C393.005 80.2571 398.566 82.5672 402.666 86.6791C406.767 90.791 409.07 96.368 409.07 102.183V118.546C409.07 119.327 408.76 120.075 408.209 120.628C407.659 121.18 406.912 121.49 406.133 121.491H368.279C367.5 121.49 366.754 121.18 366.203 120.628C365.652 120.075 365.343 119.327 365.342 118.546Z" fill="#814EE4"/>
<path d="M382.713 121.11C391.566 121.11 398.743 113.913 398.743 105.035C398.743 96.1567 391.566 88.9595 382.713 88.9595C373.86 88.9595 366.683 96.1567 366.683 105.035C366.683 113.913 373.86 121.11 382.713 121.11Z" fill="#A884ED"/>
<path d="M360.169 103.492C360.174 98.8938 361.998 94.4851 365.241 91.2335C368.483 87.9819 372.879 86.1529 377.465 86.1477H380.728C385.314 86.1529 389.71 87.9819 392.952 91.2335C396.195 94.4851 398.019 98.8938 398.024 103.492V103.819H391.127L388.775 97.2143L388.305 103.819H384.741L383.554 100.487L383.316 103.819H360.169V103.492Z" fill="#814EE4"/>
<path d="M381.136 123.331C380.812 122.892 380.619 122.369 380.578 121.824C380.537 121.279 380.651 120.734 380.906 120.25C384.364 113.654 389.206 101.466 382.779 93.9493L382.317 93.4092H400.975V121.501L384.026 124.5C383.854 124.53 383.68 124.546 383.506 124.546C383.043 124.546 382.587 124.436 382.175 124.224C381.763 124.013 381.407 123.707 381.136 123.331Z" fill="#814EE4"/>
<path d="M288.381 326.48H88.531C83.7942 326.475 79.2528 324.585 75.9034 321.227C72.554 317.868 70.6699 313.314 70.6646 308.563V17.9169C70.6699 13.1667 72.554 8.61258 75.9034 5.25367C79.2528 1.89476 83.7942 0.005364 88.531 0H288.381C293.118 0.005364 297.659 1.89476 301.009 5.25367C304.358 8.61258 306.242 13.1667 306.248 17.9169V308.563C306.242 313.314 304.358 317.868 301.009 321.227C297.659 324.585 293.118 326.475 288.381 326.48Z" fill="#976CE9"/>
<path d="M288.733 315.049H88.1791C86.719 315.047 85.3191 314.465 84.2866 313.429C83.2541 312.394 82.6733 310.99 82.6716 309.526V16.9545C82.6733 15.4902 83.2541 14.0863 84.2866 13.0509C85.3191 12.0155 86.719 11.4331 88.1791 11.4314H288.733C290.193 11.4331 291.593 12.0155 292.625 13.0509C293.658 14.0863 294.239 15.4902 294.24 16.9545V309.526C294.239 310.99 293.658 312.394 292.625 313.429C291.593 314.465 290.193 315.047 288.733 315.049Z" fill="white"/>
<path d="M187.696 7.01126C188.536 7.01126 189.216 6.32886 189.216 5.48708C189.216 4.64529 188.536 3.96289 187.696 3.96289C186.857 3.96289 186.176 4.64529 186.176 5.48708C186.176 6.32886 186.857 7.01126 187.696 7.01126Z" fill="white"/>
<path d="M232.988 196.799C224.188 196.799 215.726 193.405 209.353 187.32C202.981 181.235 199.186 172.925 198.754 164.112C198.728 164.67 198.712 165.232 198.712 165.797C198.712 174.913 202.323 183.656 208.751 190.102C215.179 196.548 223.897 200.169 232.988 200.169C242.078 200.169 250.796 196.548 257.224 190.102C263.652 183.656 267.263 174.913 267.263 165.797C267.263 165.232 267.247 164.67 267.221 164.112C266.79 172.925 262.995 181.235 256.622 187.32C250.249 193.405 241.787 196.799 232.988 196.799Z" fill="#CBCBCB"/>
<path d="M143.602 115.923C134.802 115.923 126.34 112.529 119.968 106.444C113.595 100.359 109.8 92.049 109.369 83.2354C109.342 83.7938 109.326 84.3552 109.326 84.9203C109.326 94.0364 112.937 102.779 119.365 109.225C125.793 115.671 134.511 119.293 143.602 119.293C152.692 119.293 161.41 115.671 167.838 109.225C174.266 102.779 177.878 94.0364 177.878 84.9203C177.878 84.3552 177.862 83.7938 177.835 83.2354C177.404 92.049 173.609 100.359 167.236 106.444C160.863 112.529 152.401 115.923 143.602 115.923Z" fill="#CBCBCB"/>
<path d="M145.618 277.676C136.819 277.676 128.357 274.281 121.984 268.197C115.611 262.112 111.816 253.802 111.385 244.988C111.358 245.547 111.343 246.108 111.343 246.673C111.343 255.789 114.954 264.532 121.382 270.978C127.81 277.424 136.528 281.046 145.618 281.046C154.709 281.046 163.427 277.424 169.855 270.978C176.283 264.532 179.894 255.789 179.894 246.673C179.894 246.108 179.878 245.547 179.852 244.988C179.42 253.802 175.625 262.112 169.253 268.197C162.88 274.281 154.418 277.676 145.618 277.676Z" fill="#CBCBCB"/>
<path d="M232.999 197.308C226.147 197.308 219.448 195.271 213.751 191.453C208.054 187.636 203.614 182.21 200.991 175.861C198.369 169.513 197.683 162.528 199.02 155.788C200.357 149.049 203.656 142.858 208.501 138C213.346 133.141 219.519 129.832 226.24 128.492C232.96 127.151 239.926 127.839 246.256 130.469C252.587 133.098 257.997 137.551 261.804 143.264C265.611 148.978 267.643 155.695 267.643 162.566C267.643 171.78 263.993 180.617 257.496 187.132C250.999 193.648 242.187 197.308 232.999 197.308ZM232.999 129.478C226.473 129.478 220.094 131.419 214.668 135.055C209.242 138.69 205.013 143.858 202.516 149.904C200.018 155.95 199.365 162.603 200.638 169.021C201.911 175.44 205.054 181.335 209.668 185.963C214.282 190.59 220.161 193.741 226.562 195.018C232.962 196.295 239.596 195.639 245.625 193.135C251.654 190.631 256.807 186.39 260.432 180.949C264.058 175.507 265.993 169.11 265.993 162.566C265.993 158.221 265.14 153.918 263.481 149.904C261.823 145.89 259.393 142.242 256.329 139.17C253.265 136.097 249.628 133.66 245.625 131.997C241.622 130.334 237.331 129.478 232.999 129.478Z" fill="#976CE9"/>
<path d="M143.914 116.657C137.062 116.657 130.363 114.619 124.666 110.802C118.969 106.984 114.529 101.558 111.906 95.2102C109.284 88.8619 108.598 81.8764 109.935 75.1371C111.272 68.3978 114.571 62.2074 119.416 57.3486C124.261 52.4898 130.434 49.181 137.155 47.8404C143.875 46.4999 150.841 47.1879 157.171 49.8174C163.502 52.447 168.912 56.9 172.719 62.6133C176.526 68.3266 178.558 75.0436 178.558 81.9149C178.558 86.4773 177.662 90.9951 175.921 95.2102C174.18 99.4253 171.628 103.255 168.411 106.481C165.194 109.707 161.375 112.266 157.171 114.012C152.968 115.758 148.463 116.657 143.914 116.657ZM143.914 48.8273C137.388 48.8273 131.009 50.7679 125.583 54.4036C120.157 58.0393 115.928 63.2069 113.431 69.2529C110.933 75.2988 110.28 81.9517 111.553 88.3701C112.826 94.7884 115.969 100.684 120.583 105.312C125.197 109.939 131.076 113.09 137.477 114.367C143.877 115.644 150.511 114.988 156.54 112.484C162.569 109.98 167.722 105.739 171.347 100.298C174.973 94.8563 176.908 88.4591 176.908 81.915C176.908 73.1396 173.432 64.7236 167.244 58.5184C161.057 52.3133 152.664 48.8273 143.914 48.8273V48.8273Z" fill="#976CE9"/>
<path d="M153.349 64.7281C155.657 64.735 157.868 65.6574 159.5 67.2939C161.132 68.9303 162.052 71.1478 162.059 73.462V90.928C162.052 93.2423 161.132 95.4597 159.5 97.0962C157.868 98.7326 155.657 99.655 153.349 99.6619H135.932C133.625 99.655 131.414 98.7326 129.782 97.0962C128.15 95.4597 127.23 93.2423 127.223 90.928V73.462C127.23 71.1478 128.15 68.9303 129.782 67.2939C131.414 65.6574 133.625 64.735 135.932 64.7281H153.349ZM153.349 61.2351H135.932C132.702 61.2445 129.606 62.5358 127.321 64.8267C125.037 67.1177 123.749 70.2221 123.74 73.462V90.928C123.749 94.1679 125.037 97.2724 127.321 99.5633C129.606 101.854 132.702 103.146 135.932 103.155H153.349C156.58 103.145 159.676 101.854 161.96 99.5633C164.245 97.2724 165.532 94.1679 165.542 90.928V73.462C165.532 70.2222 164.245 67.1177 161.96 64.8267C159.676 62.5358 156.58 61.2445 153.349 61.2351Z" fill="#976CE9"/>
<path d="M155.962 73.4619C155.271 73.4604 154.609 73.1839 154.121 72.6932C153.633 72.2024 153.36 71.5376 153.361 70.8447C153.361 70.1518 153.636 69.4876 154.125 68.9979C154.614 68.5082 155.277 68.2332 155.968 68.2332C156.659 68.2332 157.321 68.5082 157.81 68.9979C158.299 69.4876 158.574 70.1518 158.575 70.8447C158.575 71.5376 158.302 72.2024 157.814 72.6932C157.326 73.1839 156.664 73.4604 155.973 73.4619C155.969 73.4619 155.966 73.4619 155.962 73.4619Z" fill="#976CE9"/>
<path d="M144.641 75.2081C146.019 75.2081 147.366 75.6179 148.512 76.3856C149.657 77.1534 150.55 78.2446 151.078 79.5213C151.605 80.798 151.743 82.2028 151.474 83.5581C151.205 84.9135 150.542 86.1584 149.567 87.1356C148.593 88.1127 147.352 88.7781 146 89.0477C144.649 89.3173 143.248 89.1789 141.975 88.6501C140.702 88.1213 139.613 87.2258 138.848 86.0768C138.082 84.9278 137.674 83.5769 137.674 82.195C137.674 81.2775 137.854 80.3689 138.204 79.5212C138.554 78.6735 139.067 77.9033 139.714 77.2545C140.361 76.6057 141.129 76.0911 141.975 75.7399C142.82 75.3888 143.726 75.2081 144.641 75.2081ZM144.641 71.7151C142.574 71.7151 140.554 72.3297 138.835 73.4813C137.116 74.6328 135.777 76.2695 134.986 78.1845C134.195 80.0994 133.988 82.2066 134.391 84.2395C134.794 86.2724 135.79 88.1398 137.251 89.6054C138.713 91.0711 140.575 92.0692 142.602 92.4736C144.629 92.878 146.73 92.6704 148.64 91.8772C150.55 91.084 152.182 89.7408 153.33 88.0174C154.478 86.294 155.091 84.2678 155.091 82.1951C155.091 79.4156 153.99 76.75 152.03 74.7846C150.071 72.8193 147.412 71.7151 144.641 71.7151V71.7151Z" fill="#976CE9"/>
<path d="M145.563 277.96C138.711 277.96 132.013 275.922 126.316 272.104C120.619 268.287 116.178 262.861 113.556 256.513C110.934 250.164 110.248 243.179 111.585 236.44C112.921 229.7 116.221 223.51 121.066 218.651C125.911 213.792 132.084 210.483 138.804 209.143C145.525 207.802 152.491 208.49 158.821 211.12C165.151 213.749 170.562 218.202 174.369 223.916C178.176 229.629 180.207 236.346 180.207 243.217C180.207 252.432 176.557 261.268 170.06 267.784C163.563 274.299 154.751 277.96 145.563 277.96ZM145.563 210.13C139.037 210.13 132.658 212.07 127.232 215.706C121.807 219.342 117.578 224.509 115.08 230.555C112.583 236.601 111.93 243.254 113.203 249.673C114.476 256.091 117.618 261.987 122.233 266.614C126.847 271.241 132.726 274.393 139.126 275.669C145.527 276.946 152.161 276.291 158.19 273.787C164.219 271.282 169.372 267.041 172.997 261.6C176.623 256.159 178.558 249.762 178.558 243.217C178.558 238.872 177.704 234.57 176.046 230.555C174.388 226.541 171.958 222.893 168.894 219.821C165.83 216.748 162.193 214.311 158.19 212.648C154.187 210.986 149.896 210.13 145.563 210.13Z" fill="#976CE9"/>
<path fill-rule="evenodd" clip-rule="evenodd" d="M168.211 243.354C168.21 239.014 166.969 234.765 164.635 231.11C162.301 227.455 158.972 224.547 155.041 222.731C151.111 220.914 146.743 220.266 142.456 220.861C138.169 221.456 134.142 223.271 130.852 226.091C127.561 228.91 125.145 232.616 123.89 236.769C122.634 240.922 122.592 245.35 123.767 249.527C124.943 253.704 127.287 257.455 130.523 260.338C133.758 263.22 137.75 265.112 142.025 265.79V249.921H136.273V243.354H142.025V238.349C142.025 232.658 145.407 229.512 150.579 229.512C152.278 229.536 153.973 229.684 155.65 229.956V235.546H152.792C149.981 235.546 149.101 237.296 149.101 239.094V243.355H155.382L154.379 249.922H149.101V265.792C154.429 264.946 159.28 262.221 162.784 258.108C166.287 253.995 168.211 248.763 168.211 243.354L168.211 243.354Z" fill="#976CE9"/>
<path d="M531.808 393.599H275.749C275.57 393.599 275.4 393.528 275.274 393.401C275.147 393.275 275.077 393.103 275.077 392.925C275.077 392.746 275.147 392.575 275.274 392.448C275.4 392.322 275.57 392.251 275.749 392.251H531.808C531.986 392.251 532.157 392.322 532.283 392.448C532.409 392.575 532.48 392.746 532.48 392.925C532.48 393.103 532.409 393.275 532.283 393.401C532.157 393.528 531.986 393.599 531.808 393.599Z" fill="#976CE9"/>
<path d="M245.915 159.161C246.087 160.086 246.181 161.054 246.181 162.063C246.181 169.96 240.91 175.575 232.951 175.575C231.14 175.575 229.348 175.218 227.675 174.524C226.003 173.829 224.483 172.811 223.203 171.528C221.923 170.244 220.908 168.72 220.216 167.043C219.523 165.366 219.167 163.568 219.167 161.753C219.167 159.938 219.523 158.14 220.216 156.463C220.908 154.786 221.923 153.262 223.203 151.978C224.483 150.694 226.003 149.676 227.675 148.982C229.348 148.287 231.14 147.93 232.951 147.931C236.672 147.931 239.782 149.304 242.168 151.534L238.282 155.43V155.42C236.836 154.039 235 153.33 232.951 153.33C228.403 153.33 224.706 157.183 224.706 161.744C224.706 166.305 228.403 170.166 232.951 170.166C237.077 170.166 239.886 167.8 240.462 164.551H232.951V159.161H245.916H245.915Z" fill="#976CE9"/>
</g>
<defs>
<clipPath id="clip0_1:33">
<rect width="532.343" height="394" fill="white" transform="translate(0.137695)"/>
</clipPath>
</defs>
</svg>
